<svg width="18" height="21" viewBox="0 0 18 21" fill="none" xmlns="http://www.w3.org/2000/svg">
<path d="M9 4.5C8.25832 4.5 7.5333 4.71993 6.91661 5.13199C6.29993 5.54404 5.81928 6.12971 5.53545 6.81494C5.25162 7.50016 5.17736 8.25416 5.32205 8.98159C5.46675 9.70902 5.8239 10.3772 6.34835 10.9017C6.8728 11.4261 7.54098 11.7833 8.26841 11.9279C8.99584 12.0726 9.74984 11.9984 10.4351 11.7145C11.1203 11.4307 11.706 10.9501 12.118 10.3334C12.5301 9.7167 12.75 8.99168 12.75 8.25C12.75 7.25544 12.3549 6.30161 11.6517 5.59835C10.9484 4.89509 9.99456 4.5 9 4.5ZM9 10.5C8.55499 10.5 8.11998 10.368 7.74997 10.1208C7.37996 9.87357 7.09157 9.52217 6.92127 9.11104C6.75097 8.6999 6.70642 8.2475 6.79323 7.81105C6.88005 7.37459 7.09434 6.97368 7.40901 6.65901C7.72368 6.34434 8.12459 6.13005 8.56105 6.04323C8.9975 5.95642 9.4499 6.00097 9.86104 6.17127C10.2722 6.34157 10.6236 6.62996 10.8708 6.99997C11.118 7.36998 11.25 7.80499 11.25 8.25C11.25 8.84674 11.0129 9.41903 10.591 9.84099C10.169 10.2629 9.59674 10.5 9 10.5ZM9 0C6.81273 0.00248131 4.71575 0.872472 3.16911 2.41911C1.62247 3.96575 0.752481 6.06273 0.75 8.25C0.75 11.1938 2.11031 14.3138 4.6875 17.2734C5.84552 18.6108 7.14886 19.8151 8.57344 20.8641C8.69954 20.9524 8.84978 20.9998 9.00375 20.9998C9.15772 20.9998 9.30796 20.9524 9.43406 20.8641C10.856 19.8147 12.1568 18.6104 13.3125 17.2734C15.8859 14.3138 17.25 11.1938 17.25 8.25C17.2475 6.06273 16.3775 3.96575 14.8309 2.41911C13.2843 0.872472 11.1873 0.00248131 9 0ZM9 19.3125C7.45031 18.0938 2.25 13.6172 2.25 8.25C2.25 6.45979 2.96116 4.7429 4.22703 3.47703C5.4929 2.21116 7.20979 1.5 9 1.5C10.7902 1.5 12.5071 2.21116 13.773 3.47703C15.0388 4.7429 15.75 6.45979 15.75 8.25C15.75 13.6153 10.5497 18.0938 9 19.3125Z" fill="#155DFC"/>
</svg>
