<svg width="19" height="20" viewBox="0 0 19 20" fill="none" xmlns="http://www.w3.org/2000/svg">
<path d="M17.8472 13.3557L13.4306 11.3766L13.4184 11.371C13.1892 11.2729 12.939 11.2336 12.6907 11.2565C12.4424 11.2794 12.2037 11.3639 11.9963 11.5022C11.9718 11.5184 11.9484 11.5359 11.9259 11.5547L9.64407 13.5001C8.19845 12.7979 6.70595 11.3166 6.00376 9.88974L7.95188 7.57318C7.97063 7.54974 7.98845 7.5263 8.00532 7.50099C8.14072 7.29409 8.22287 7.05692 8.24446 6.81059C8.26605 6.56427 8.22641 6.31642 8.12907 6.08912V6.07787L6.14438 1.6538C6.0157 1.35687 5.79444 1.10951 5.51362 0.948653C5.2328 0.7878 4.9075 0.72208 4.58626 0.761304C3.31592 0.928467 2.14986 1.55234 1.30588 2.51639C0.461903 3.48045 -0.00228837 4.71876 8.4831e-06 6.00005C8.4831e-06 13.4438 6.05626 19.5001 13.5 19.5001C14.7813 19.5023 16.0196 19.0382 16.9837 18.1942C17.9477 17.3502 18.5716 16.1841 18.7388 14.9138C18.7781 14.5927 18.7125 14.2674 18.5518 13.9866C18.3911 13.7058 18.144 13.4845 17.8472 13.3557ZM13.5 18.0001C10.3185 17.9966 7.26825 16.7312 5.01856 14.4815C2.76888 12.2318 1.50348 9.18159 1.50001 6.00005C1.49648 5.08458 1.82631 4.19911 2.42789 3.50903C3.02947 2.81895 3.86167 2.37143 4.76907 2.25005C4.7687 2.2538 4.7687 2.25756 4.76907 2.2613L6.73782 6.66755L4.80001 8.98693C4.78034 9.00956 4.76247 9.0337 4.74657 9.05912C4.60549 9.2756 4.52273 9.52486 4.5063 9.78274C4.48988 10.0406 4.54035 10.2984 4.65282 10.531C5.5022 12.2682 7.25251 14.0054 9.00845 14.8538C9.24279 14.9652 9.50203 15.0139 9.76083 14.9952C10.0196 14.9765 10.2692 14.8909 10.485 14.7469C10.5091 14.7307 10.5322 14.7132 10.5544 14.6944L12.8334 12.7501L17.2397 14.7235C17.2397 14.7235 17.2472 14.7235 17.25 14.7235C17.1301 15.6322 16.6833 16.4661 15.9931 17.0691C15.3028 17.6722 14.4166 18.0031 13.5 18.0001Z" fill="#155DFC"/>
</svg>
